<svg version="1.2" xmlns="http://www.w3.org/2000/svg" viewBox="0 0 256 256" width="512" height="512">
	<title>linkedin</title>
	<style>
		.s0 { fill: none;stroke: #ffffff;stroke-miterlimit:100;stroke-width: 8 } 
	</style>
	<g id="github-mark">
		<path fill-rule="evenodd" class="s0" d="m128.1 0c-70.8 0-128.1 57.7-128.1 129.1 0 57 36.7 105.3 87.6 122.4 6.4 1.3 8.7-2.8 8.7-6.2 0-3-0.2-13.3-0.2-23.9-35.7 7.7-43.1-15.4-43.1-15.4-5.7-15-14.2-18.8-14.2-18.8-11.7-7.9 0.9-7.9 0.9-7.9 12.9 0.8 19.7 13.2 19.7 13.2 11.4 19.7 29.9 14.1 37.3 10.7 1.1-8.3 4.5-14.1 8.1-17.3-28.4-3-58.3-14.1-58.3-63.7 0-14.1 5-25.6 13.1-34.6-1.3-3.2-5.7-16.4 1.3-34.2 0 0 10.8-3.4 35.2 13.3q3.9-1.1 7.9-1.9 3.9-0.8 8-1.3 4-0.6 8-0.8 4.1-0.3 8.1-0.3c10.8 0 21.8 1.5 32 4.3 24.4-16.7 35.2-13.3 35.2-13.3 7 17.8 2.6 31 1.3 34.2 8.3 9 13.2 20.5 13.2 34.6 0 49.6-29.9 60.5-58.6 63.7 4.7 4.1 8.7 11.7 8.7 23.9 0 17.3-0.2 31.2-0.2 35.5 0 3.4 2.3 7.5 8.7 6.2 50.9-17.1 87.6-65.4 87.6-122.4 0.2-71.4-57.3-129.1-127.9-129.1z"/>
	</g>
</svg>