<svg version="1.2" xmlns="http://www.w3.org/2000/svg" viewBox="0 0 512 512" width="512" height="512">
	<title>github_outline</title>
	<style>
		.s0 { fill: none;stroke: #ffffff;stroke-miterlimit:100;stroke-width: 16 } 
	</style>
	<g id="github-mark">
		<path fill-rule="evenodd" class="s0" d="m256.1 27c-128.8 0-233.1 105-233.1 234.9 0 103.8 66.8 191.7 159.4 222.8 11.7 2.4 15.9-5.1 15.9-11.3 0-5.5-0.4-24.2-0.4-43.5-65 14-78.4-28-78.4-28-10.4-27.3-25.9-34.2-25.9-34.2-21.3-14.4 1.6-14.4 1.6-14.4 23.5 1.5 35.9 24 35.9 24 20.7 35.9 54.4 25.7 67.9 19.5 2-15.1 8.2-25.7 14.7-31.5-51.7-5.5-106.1-25.7-106.1-115.9 0-25.7 9.1-46.6 23.9-63-2.4-5.8-10.4-29.8 2.3-62.2 0 0 19.7-6.2 64.1 24.2q7.1-2 14.4-3.5 7.1-1.4 14.5-2.3 7.3-1.1 14.6-1.5 7.4-0.5 14.7-0.5c19.7 0 39.7 2.7 58.3 7.8 44.4-30.4 64-24.2 64-24.2 12.8 32.4 4.7 56.4 2.4 62.2 15.1 16.4 24 37.3 24 63 0 90.2-54.4 110.1-106.6 115.9 8.5 7.5 15.8 21.3 15.8 43.5 0 31.5-0.4 56.8-0.4 64.6 0 6.2 4.2 13.7 15.9 11.3 92.6-31.1 159.4-119 159.4-222.8 0.3-129.9-104.3-234.9-232.8-234.9z"/>
	</g>
</svg>