<svg version="1.2" xmlns="http://www.w3.org/2000/svg" viewBox="0 0 512 512" width="512" height="512">
	<title>github_outline</title>
	<style>
		.s0 { fill: none;stroke: #ffffff;stroke-miterlimit:100;stroke-width: 16 } 
	</style>
	<g id="github-mark">
		<path fill-rule="evenodd" class="s0" d="m256.2 0c-141.6 0-256.2 115.4-256.2 258.2 0 114 73.4 210.6 175.2 244.8 12.8 2.6 17.4-5.6 17.4-12.4 0-6-0.4-26.6-0.4-47.8-71.4 15.4-86.2-30.8-86.2-30.8-11.4-30-28.4-37.6-28.4-37.6-23.4-15.8 1.8-15.8 1.8-15.8 25.8 1.6 39.4 26.4 39.4 26.4 22.8 39.4 59.8 28.2 74.6 21.4 2.2-16.6 9-28.2 16.2-34.6-56.8-6-116.6-28.2-116.6-127.4 0-28.2 10-51.2 26.2-69.2-2.6-6.4-11.4-32.8 2.6-68.4 0 0 21.6-6.8 70.4 26.6q7.8-2.2 15.8-3.8 7.8-1.6 16-2.6 8-1.2 16-1.6 8.2-0.6 16.2-0.6c21.6 0 43.6 3 64 8.6 48.8-33.4 70.4-26.6 70.4-26.6 14 35.6 5.2 62 2.6 68.4 16.6 18 26.4 41 26.4 69.2 0 99.2-59.8 121-117.2 127.4 9.4 8.2 17.4 23.4 17.4 47.8 0 34.6-0.4 62.4-0.4 71 0 6.8 4.6 15 17.4 12.4 101.8-34.2 175.2-130.8 175.2-244.8 0.4-142.8-114.6-258.2-255.8-258.2z"/>
	</g>
</svg>